<svg width="25" height="24" viewBox="0 0 25 24" fill="none" xmlns="http://www.w3.org/2000/svg">
<path fill-rule="evenodd" clip-rule="evenodd" d="M12.5208 0.0898438C5.90647 0.0898438 0.542969 5.5438 0.542969 12.2721C0.542969 17.6547 3.97497 22.2212 8.73411 23.832C9.33272 23.9448 9.55249 23.5678 9.55249 23.246C9.55249 22.9555 9.54138 21.9958 9.53623 20.9779C6.20399 21.7148 5.50085 19.5405 5.50085 19.5405C4.95599 18.1324 4.17094 17.7579 4.17094 17.7579C3.08419 17.0018 4.25285 17.0174 4.25285 17.0174C5.45563 17.1031 6.08895 18.2728 6.08895 18.2728C7.15725 20.1352 8.891 19.5968 9.57451 19.2855C9.68201 18.4983 9.99242 17.9605 10.335 17.6565C7.67454 17.3484 4.87784 16.3038 4.87784 11.6358C4.87784 10.3058 5.34575 9.21904 6.11196 8.36589C5.9876 8.05885 5.57761 6.81998 6.22799 5.14194C6.22799 5.14194 7.23381 4.81452 9.52274 6.39069C10.4782 6.12076 11.5028 5.9854 12.5208 5.98076C13.5387 5.9854 14.5641 6.12076 15.5213 6.39069C17.8075 4.81452 18.8119 5.14194 18.8119 5.14194C19.4639 6.81998 19.0537 8.05885 18.9293 8.36589C19.6973 9.21904 20.1621 10.3058 20.1621 11.6358C20.1621 16.3149 17.36 17.3452 14.6929 17.6468C15.1225 18.0248 15.5053 18.7662 15.5053 19.9028C15.5053 21.5326 15.4914 22.8445 15.4914 23.246C15.4914 23.5702 15.707 23.9501 16.3141 23.8304C21.0707 22.2177 24.4983 17.6528 24.4983 12.2721C24.4983 5.5438 19.1356 0.0898438 12.5208 0.0898438Z" fill="#43403B"/>
<path fill-rule="evenodd" clip-rule="evenodd" d="M5.07956 17.581C5.05318 17.6417 4.95956 17.6597 4.87427 17.6181C4.7874 17.5784 4.73861 17.4959 4.76677 17.4352C4.79256 17.3728 4.88637 17.3557 4.97305 17.397C5.06013 17.437 5.10971 17.5203 5.07956 17.581Z" fill="#43403B"/>
<path fill-rule="evenodd" clip-rule="evenodd" d="M5.56472 18.1314C5.5076 18.1852 5.39593 18.1602 5.32016 18.0751C5.24181 17.9901 5.22713 17.8766 5.28505 17.8219C5.34396 17.768 5.45226 17.7932 5.5308 17.8782C5.60915 17.9641 5.62442 18.0769 5.56472 18.1314Z" fill="#43403B"/>
<path fill-rule="evenodd" clip-rule="evenodd" d="M6.03699 18.833C5.9636 18.8848 5.8436 18.8362 5.76941 18.7279C5.69603 18.6196 5.69603 18.4896 5.771 18.4376C5.84538 18.3855 5.9636 18.4324 6.03877 18.5399C6.11196 18.6498 6.11196 18.7799 6.03699 18.833Z" fill="#43403B"/>
<path fill-rule="evenodd" clip-rule="evenodd" d="M6.68399 19.5108C6.61834 19.5845 6.47851 19.5647 6.37616 19.4642C6.27143 19.366 6.24227 19.2266 6.30813 19.153C6.37457 19.0791 6.5152 19.0999 6.61834 19.1996C6.72227 19.2976 6.75401 19.438 6.68399 19.5108Z" fill="#43403B"/>
<path fill-rule="evenodd" clip-rule="evenodd" d="M7.57656 19.9044C7.5476 19.9998 7.41292 20.0432 7.27725 20.0027C7.14178 19.9609 7.05312 19.8491 7.08049 19.7527C7.10865 19.6567 7.24393 19.6115 7.38059 19.6549C7.51586 19.6964 7.60472 19.8074 7.57656 19.9044Z" fill="#43403B"/>
<path fill-rule="evenodd" clip-rule="evenodd" d="M8.55679 19.9775C8.56016 20.0779 8.44512 20.1612 8.3027 20.1628C8.1595 20.1663 8.04366 20.085 8.04208 19.9861C8.04208 19.8847 8.15454 19.8021 8.29775 19.7997C8.44016 19.7969 8.55679 19.8776 8.55679 19.9775Z" fill="#43403B"/>
<path fill-rule="evenodd" clip-rule="evenodd" d="M9.46899 19.8195C9.48604 19.9175 9.38707 20.0182 9.24565 20.0448C9.10661 20.0709 8.97788 20.0103 8.96023 19.9131C8.94297 19.8126 9.04373 19.712 9.18257 19.6859C9.32419 19.6609 9.45094 19.7198 9.46899 19.8195Z" fill="#43403B"/>
</svg>
