<svg width="25" height="24" viewBox="0 0 25 24" fill="none" xmlns="http://www.w3.org/2000/svg">
<path fill-rule="evenodd" clip-rule="evenodd" d="M0.5 12C0.5 5.37258 5.87258 0 12.5 0C19.1274 0 24.5 5.37258 24.5 12C24.5 18.6274 19.1274 24 12.5 24C5.87258 24 0.5 18.6274 0.5 12ZM8.98027 9.93892H6.26081V18.1098H8.98027V9.93892ZM9.15938 7.41135C9.14173 6.6102 8.56883 6 7.63852 6C6.70821 6 6.1 6.6102 6.1 7.41135C6.1 8.1959 6.69023 8.82367 7.60322 8.82367H7.62059C8.56883 8.82367 9.15938 8.1959 9.15938 7.41135ZM18.7877 13.4249C18.7877 10.9151 17.4461 9.74706 15.6566 9.74706C14.2127 9.74706 13.5663 10.5401 13.2053 11.0965V9.93914H10.4855C10.5214 10.7059 10.4855 18.11 10.4855 18.11H13.2053V13.5467C13.2053 13.3025 13.223 13.0589 13.2949 12.8841C13.4914 12.3962 13.9389 11.8911 14.6903 11.8911C15.6747 11.8911 16.0682 12.6404 16.0682 13.7384V18.1098H18.7876L18.7877 13.4249Z" fill="#43403B"/>
</svg>
